<?xml version="1.0" standalone="no"?>
<!DOCTYPE svg PUBLIC "-//W3C//DTD SVG 20010904//EN"
 "http://www.w3.org/TR/2001/REC-SVG-20010904/DTD/svg10.dtd">
<svg version="1.0" xmlns="http://www.w3.org/2000/svg"
 width="700.000000pt" height="700.000000pt" viewBox="0 0 700.000000 700.000000"
 preserveAspectRatio="xMidYMid meet">
<metadata>
Created by potrace 1.11, written by Peter Selinger 2001-2013
</metadata>
<g transform="translate(0.000000,700.000000) scale(0.100000,-0.100000)"
fill="#000000" stroke="none">
<path d="M0 3500 l0 -3500 3500 0 3500 0 0 3500 0 3500 -3500 0 -3500 0 0
-3500z m2090 1540 c253 -29 472 -138 652 -324 81 -83 102 -131 96 -215 -7 -98
-66 -165 -170 -191 -75 -19 -146 7 -217 79 -80 82 -137 126 -213 161 -242 114
-522 59 -736 -144 -76 -72 -96 -85 -139 -94 -67 -15 -115 -6 -171 32 -82 55
-115 147 -87 242 11 38 32 70 80 122 191 206 464 324 790 340 17 1 68 -3 115
-8z m3170 -16 c205 -42 418 -165 561 -323 97 -107 111 -201 45 -299 -54 -81
-148 -116 -240 -88 -37 11 -67 32 -125 89 -94 92 -166 138 -268 174 -67 23
-94 27 -188 27 -189 0 -345 -63 -474 -192 -41 -41 -91 -81 -110 -90 -92 -38
-205 -6 -264 76 -24 33 -32 55 -35 102 -7 90 16 139 107 230 90 91 170 147
295 206 217 103 468 134 696 88z m-688 -1759 c218 -46 373 -211 424 -450 28
-135 16 -445 -23 -569 -9 -32 57 26 218 189 79 81 158 154 174 162 105 56 242
15 297 -90 33 -62 31 -148 -4 -207 -36 -62 -358 -376 -495 -483 -410 -321
-817 -503 -1283 -574 -141 -21 -479 -24 -620 -4 -640 88 -1260 401 -1763 891
-71 69 -141 145 -155 170 -52 88 -28 214 53 276 67 51 166 61 235 24 14 -7 90
-76 171 -154 393 -381 861 -642 1330 -741 184 -39 171 -44 198 78 66 292 176
608 295 846 146 290 353 518 543 598 122 51 278 65 405 38z"/>
<path d="M4333 2819 c-200 -99 -413 -497 -551 -1029 -17 -63 -27 -116 -22
-118 4 -2 52 4 106 13 212 34 515 138 539 185 21 42 85 239 116 358 76 295 72
558 -9 601 -35 19 -132 13 -179 -10z"/>
</g>
</svg>
