<svg width="16" height="16" viewBox="0 0 16 16" fill="none" xmlns="http://www.w3.org/2000/svg">
<rect width="16" height="16" rx="2" fill="white"/>
<rect width="16" height="16" fill="#6BB247"/>
<path fill-rule="evenodd" clip-rule="evenodd" d="M3.39914 5.96376C3.55613 5.75572 3.92418 5.52437 4.36775 5.47508C4.78346 5.42889 5.23951 5.54516 5.62096 5.98864C5.80104 6.19799 6.11673 6.22172 6.32608 6.04165C6.53543 5.86158 6.55917 5.54588 6.37909 5.33653C5.76055 4.61742 4.9666 4.40239 4.25731 4.4812C3.57588 4.55692 2.94392 4.90686 2.60092 5.36141C2.43458 5.58183 2.47843 5.89536 2.69885 6.0617C2.91927 6.22803 3.23281 6.18419 3.39914 5.96376ZM10.3991 5.96376C10.5561 5.75572 10.9242 5.52437 11.3677 5.47508C11.7835 5.42889 12.2395 5.54516 12.621 5.98864C12.801 6.19799 13.1167 6.22172 13.3261 6.04165C13.5354 5.86158 13.5592 5.54588 13.3791 5.33653C12.7605 4.61742 11.9666 4.40239 11.2573 4.4812C10.5759 4.55692 9.94392 4.90686 9.60091 5.36141C9.43458 5.58183 9.47843 5.89536 9.69885 6.0617C9.91927 6.22803 10.2328 6.18419 10.3991 5.96376ZM3.16555 10.1283C3.3708 9.94361 3.68695 9.96025 3.87168 10.1655C4.56989 10.9413 5.82698 11.8663 7.30152 12.133C7.38482 12.148 7.46902 12.1611 7.55408 12.1718C7.66535 11.634 7.87482 10.8553 8.19699 10.1638C8.38373 9.76301 8.62128 9.36295 8.92168 9.05633C9.22478 8.74695 9.62643 8.49999 10.1231 8.49999C10.6212 8.49999 11.0137 8.7084 11.2423 9.0925C11.4449 9.43291 11.4787 9.84663 11.4599 10.2047C11.4477 10.4382 11.411 10.6804 11.3608 10.9165C11.6163 10.6991 11.8725 10.4498 12.1284 10.1655C12.3131 9.96025 12.6293 9.94361 12.8345 10.1283C13.0398 10.3131 13.0564 10.6292 12.8717 10.8345C10.9617 12.9567 8.91503 13.441 7.12353 13.117C5.37308 12.8004 3.93016 11.7253 3.12838 10.8345C2.94365 10.6292 2.96029 10.3131 3.16555 10.1283ZM10.053 11.7721C10.2203 11.3585 10.4329 10.6944 10.4613 10.1524C10.4762 9.86763 10.4354 9.69207 10.383 9.60391C10.3565 9.55944 10.3135 9.49999 10.1231 9.49999C9.98283 9.49999 9.82275 9.56553 9.636 9.75615C9.44655 9.94953 9.26612 10.237 9.10344 10.5861C8.85753 11.114 8.68172 11.7178 8.57436 12.1864C9.05221 12.1382 9.54779 12.0088 10.053 11.7721Z" fill="white"/>
</svg>
